<svg width="30" height="35" id="Layer_1" data-name="Layer 1" xmlns="http://www.w3.org/2000/svg" viewBox="0 0 32 38"><defs><style>.cls-1{fill:none;}.cls-2{fill:#e53935;}</style></defs><title>Artboard 1</title><path class="cls-1" d="M-8-4H40V44H-8Z"/><path class="cls-2" d="M0,28a6,6,0,0,0,2,4.44V36a2,2,0,0,0,2,2H6a2,2,0,0,0,2-2V34H24v2a2,2,0,0,0,2,2h2a2,2,0,0,0,2-2V32.44A6,6,0,0,0,32,28V8c0-7-7.16-8-16-8S0,1,0,8Zm7,2a3,3,0,1,1,3-3A3,3,0,0,1,7,30Zm18,0a3,3,0,1,1,3-3A3,3,0,0,1,25,30Zm3-12H4V8H28Z"/></svg>