<svg width="27" height="40" id="svg3025" xmlns="http://www.w3.org/2000/svg" viewBox="0 0 285.71 428.57"><title>Artboard 1</title><g id="g3027"><path id="path3029" d="M242.86,142.86q0-41.41-29.3-70.7t-70.7-29.3q-41.41,0-70.7,29.3t-29.3,70.7q0,41.41,29.3,70.7t70.7,29.3q41.41,0,70.7-29.3T242.86,142.86Zm42.86,0q0,30.41-9.21,49.94l-101.56,216a33.86,33.86,0,0,1-13.25,14.51,36.11,36.11,0,0,1-37.67,0,32.14,32.14,0,0,1-13-14.51L9.21,192.8Q0,173.27,0,142.86q0-59.15,41.85-101T142.86,0q59.15,0,101,41.85T285.71,142.86Z"/></g><path d="M80.36,169.45c0,5.82,3,11,7.81,14.61v11.71c0,3.62,3.52,6.58,7.81,6.58h7.81c4.34,0,7.81-3,7.81-6.58v-6.58h62.5v6.58c0,3.62,3.48,6.58,7.81,6.58h7.81c4.3,0,7.81-3,7.81-6.58V184.05c4.77-3.62,7.81-8.78,7.81-14.61V103.66c0-23-28-26.32-62.5-26.32s-62.5,3.29-62.5,26.32ZM107.7,176c-6.48,0-11.72-4.41-11.72-9.87s5.23-9.87,11.72-9.87,11.72,4.41,11.72,9.87S114.19,176,107.7,176ZM178,176c-6.48,0-11.72-4.41-11.72-9.87s5.23-9.87,11.72-9.87,11.72,4.41,11.72,9.87S184.5,176,178,176Zm11.72-39.47H96V103.66h93.75Z"/></svg>